# xmcd
#
# Track frame offsets:
#	150
#	20301
#	39719
#	55814
#	72563
#	89472
#	107426
#	121295
#	138098
#	157336
#	178630
#	197972
#	219623
#	238543
#	259691
#	275227
#	289086
#	304354
#
# Disc length: 4330 seconds
#
# Revision: 1
# Processed by: cddbd v1.5.2PL0 Copyright (c) Steve Scherf et al.
# Submitted via: EZCDAudioConverter 5.0.1.1
#
DISCID=1610e812
DTITLE=Various Artist - Now That's What I Call Country Ballads
DYEAR=2012
DGENRE=Country
TTITLE0=Taylor Swift - Forever and Always (Piano Version)
TTITLE1=Keith Urban - Tonight I Wanna Cry
TTITLE2=Rascal Flatts - What Hurts the Most
TTITLE3=The Band Perry - If I Die Young
TTITLE4=Martina McBride - I'm Gonna Love You Through It
TTITLE5=Luke Bryan - Do I
TTITLE6=Jake Owen - Don't Think I Can't Love You
TTITLE7=Lady Antebellum - American Honey
TTITLE8=Jason Aldean with Kelly Clarkson - Don't You Wanna Stay
TTITLE9=Shania Twain - Forever and for Always
TTITLE10=Carrie Underwood - I Told You So
TTITLE11=Sara Evans - I Could Not Ask for More
TTITLE12=Kenny Chesney - Better as a Memory
TTITLE13=Dierks Bentley - Come a Little Closer
TTITLE14=Chris Young - The Man I Want to Be
TTITLE15=Darius Rucker - Don't Think I Don't Think About It
TTITLE16=George Strait - I Saw God Today
TTITLE17=Alan Jackson - Remember When
EXTD=
EXTT0=
EXTT1=
EXTT2=
EXTT3=
EXTT4=
EXTT5=
EXTT6=
EXTT7=
EXTT8=
EXTT9=
EXTT10=
EXTT11=
EXTT12=
EXTT13=
EXTT14=
EXTT15=
EXTT16=
EXTT17=
PLAYORDER=
